Name: deadmau5: Meowingtons Hax 2k11 Toronto
Label : Parlophone
Product Code : P9540959
Release Date : 20-02-12
Size : 1.05 GB (1,134,551,040 bytes)
Genre : Electronic
Style : House, Trance, Progressive, Electro, Dubstep



Tracklist:

01. Where My Keys
02. Bad Selection
03. Maths
04. Reward Is More Cheese
05. Some Chords/Tiny Dancer
06. Secondary Complications/Sometimes Things Get, Whatever
07. Cthulhu Sleeps
08. Arguru
09. Asdfghjkl
10. Hr 8938 Cephei
11. Jaded
12. Slip
13. Aural Psynapse
14. October/Raise Your Weapon
15. Raise Your Weapon (Noisia Remix)
16. Sofi Needs A Ladder
17. One Trick Pony
18. FML/I Remember
19. Professional Griefers
20. Moar Ghosts N Stuff
21. Ghosts N Stuff
22. Limit Break
23. Animal Rights
24. Get In The Cart, Pig
25. Strobe


General

Format : AVI
Format/Info : Audio Video Interleave
File size : 1.06 GiB
Duration : 1h 53mn
Overall bit rate : 1331 Kbps

Video

ID : 0
Format : AVC
Format/Info : Advanced Video Codec
Format profile : Main@L5.1
Format settings, CABAC : Yes
Format settings, ReFrames : 1 frame
Codec ID : H264
Duration : 1h 53mn
Bit rate : 1 194 Kbps
Width : 720 pixels
Height : 480 pixels
Display aspect ratio : 3:2
Frame rate : 23.976 fps
Standard : NTSC
Color space : YUV
Chroma subsampling : 4:2:0
Bit depth : 8 bits
Scan type : Progressive
Bits/(Pixel*Frame) : 0.144
Stream size : 970 MiB (90%)

Audio

ID : 1
Format : MPEG Audio
Format version : Version 1
Format profile : Layer 3
Codec ID : 55
Codec ID/Hint : MP3
Duration : 1h 53mn
Bit rate mode : Constant
Bit rate : 128 Kbps
Channel(s) : 2 channels
Sampling rate : 44.1 KHz
Compression mode : Lossy
Stream size : 104 MiB (10%)
Alignment : Split accross interleaves
Interleave, duration : 42 ms (1.00 video frame)
Writing library : LAMELAME_MAJOR_VERSI


Screens:
 
http://s13.postimage.org/h4te1cpp3/57m24s48.png 
http://s8.postimage.org/cxhuqt5px/57m26s70.png 
http://s14.postimage.org/c7z41yf4x/58m24s134.png 
http://s15.postimage.org/ophat0e97/58m47s111.png 
http://s13.postimage.org/r62toes5z/58m51s147.png 
http://s17.postimage.org/ltt3e3arj/59m21s197.png


Powered By Blazinseedboxes.com